<?xml version="1.0" encoding="utf-8"?>
<!-- Generator: Adobe Illustrator 26.0.0, SVG Export Plug-In . SVG Version: 6.00 Build 0)  -->
<svg version="1.1"
	 id="svg5214" xmlns:cc="http://creativecommons.org/ns#" xmlns:dc="http://purl.org/dc/elements/1.1/" xmlns:inkscape="http://www.inkscape.org/namespaces/inkscape" xmlns:rdf="http://www.w3.org/1999/02/22-rdf-syntax-ns#" xmlns:sodipodi="http://sodipodi.sourceforge.net/DTD/sodipodi-0.dtd" xmlns:svg="http://www.w3.org/2000/svg"
	 xmlns="http://www.w3.org/2000/svg" xmlns:xlink="http://www.w3.org/1999/xlink" x="0px" y="0px" viewBox="0 0 380.1 333.8"
	 style="enable-background:new 0 0 380.1 333.8;" xml:space="preserve">
<style type="text/css">
	.st0{fill:#FFD9A1;stroke:#000000;stroke-opacity:0;}
	.st1{fill:#FFEBCD;stroke:#000000;stroke-opacity:0;}
	.st2{fill:#F8C785;}
	.st3{fill:#FF5CD9;}
	.st4{fill:#F8C785;stroke:#000000;stroke-opacity:0;}
	.st5{fill:#FFFAFA;stroke:#000000;stroke-opacity:0;}
	.st6{fill:#FFFFFF;stroke:#000000;stroke-opacity:0;}
	.st7{fill:#B8860B;stroke:#FFFFFF;stroke-opacity:0;}
	.st8{fill:#B8860B;stroke:#000000;stroke-opacity:0;}
	.st9{fill:#DDA10E;}
	.st10{fill:none;stroke:#000000;}
	.st11{fill:#DDA10E;stroke:#000000;stroke-opacity:0;}
	.st12{fill:#E205A4;}
	.st13{fill:#C8992D;stroke:#000000;stroke-opacity:0;}
	.st14{fill:#FCE3C2;}
	.st15{fill:#FFD9A1;}
	.st16{fill:#FFEEEE;}
	.st17{fill:#FFD9A1;stroke:#FFFFFF;stroke-opacity:0;}
	.st18{fill:#FCE3C2;stroke:#000000;stroke-opacity:0;}
	.st19{fill:none;stroke:#D2B48C;}
	.st20{fill:url(#path3744_00000072979206786826857180000011404881487155274400_);stroke:#483611;}
	.st21{fill:#F4BE78;stroke:#000000;stroke-opacity:0;}
	.st22{fill:#FFFFFF;}
	.st23{fill:url(#path3762_00000119834599263542144160000011139365137932613561_);stroke:#483611;}
	.st24{stroke:#000000;}
	.st25{fill:#F96E6E;stroke:#B73131;}
	.st26{fill:none;stroke:#936E22;}
	.st27{fill:none;stroke:#D3A340;}
	.st28{fill:none;stroke:#C8992D;}
	.st29{fill:#FFFFFF;stroke:#F8C785;}
	.st30{fill:none;stroke:#800000;}
	.st31{fill:none;}
	.st32{fill:#FABA6F;stroke:#FABA6F;}
	.st33{opacity:0.4483;fill:#3E9425;stroke:#000000;stroke-opacity:0;enable-background:new    ;}
	.st34{opacity:0.4483;fill:none;stroke:#8DF2FF;enable-background:new    ;}
	.st35{opacity:0.4483;fill:#8AE5F1;stroke:#8DF2FF;enable-background:new    ;}
	.st36{opacity:0.4483;fill:#48B45E;stroke:#3E9425;enable-background:new    ;}
	.st37{fill:url(#SVGID_1_);stroke:#D4DF3B;stroke-width:2;}
	.st38{fill:url(#SVGID_00000150089314541440412640000000801820914715002534_);}
	.st39{fill:url(#SVGID_00000122695343262212107800000007879166087864046725_);}
	.st40{fill:url(#SVGID_00000174577351071187035800000010246729820585638037_);}
	.st41{fill:url(#SVGID_00000182489615881230111420000004125577860087583362_);}
</style>
<sodipodi:namedview  bordercolor="#666666" borderopacity="1.0" fit-margin-bottom="0" fit-margin-left="0" fit-margin-right="0" fit-margin-top="0" id="base" inkscape:current-layer="layer1" inkscape:cx="352.89071" inkscape:cy="248.05853" inkscape:document-units="px" inkscape:pageopacity="0.0" inkscape:pageshadow="2" inkscape:window-height="748" inkscape:window-maximized="1" inkscape:window-width="1366" inkscape:window-x="-2" inkscape:window-y="-3" inkscape:zoom="0.80664062" pagecolor="#ffffff" showgrid="false">
	</sodipodi:namedview>
<path id="path4898" class="st0" d="M276.2,276.4l2.3-9.6l-0.3,9.5L276.2,276.4z"/>
<g>
	<path id="path4716" class="st1" d="M310.2,109.8c0,0-4.7,21.7-2.7,30.5s8.1,33.2,5.4,38.6s-44.9,40.5-53,41.8
		c-8.1,1.4-27.5-3.6-27.5-3.6l-6.9,16c0-0.1,37.1-5.5,48.7,3.4c18.2,8.3,28.8,38,29.4,37.9L107.1,277c0,0-0.1-28.7,12.3-41.8
		c12.5-14.5,34.4-11.7,34.4-11.7l18.3-0.7L168,195l-4.1-32.5l4.7-46.7l8.1-14.2L212.9,89l28.9,38.2l18.8,2.1l15.6-29.1l5.4-8.8
		l10.8-1.4l7.4,8.1l5.6-1.6L310.2,109.8z"/>
	<path id="path4900" class="st0" d="M165.8,237.4c13.4,18.7,32.2,21.4,32.2,21.4l-38.5-34.9L165.8,237.4z"/>
	<path id="path4710" class="st2" d="M109.1,43.4c13.2-34.6,44.1-54.3,93.4-58.2c49.8-13.4,97.4-1.1,126.1,44.1
		c14.8,23.3,20.9,63.7,5.3,114.3c-3.1,29.6-7.1,58.3-15.6,82.6c-4.9,13.2-9.7,26.6-17.1,37.4c0.5-5,4.3-12.9,3.9-13.4
		c-1.4-1.6-11.5,18.4-11.3,17.6c0.5-3.3,13.7-36.3,12.2-44.6c-5,9.3-9.6,16.3-14,19.2c3.3-6.5,7.5-12,8.8-20.9
		c3.2-10.8,3.6-21.7,1.4-32.5c4.6-3.3,9.1-6.7,10.8-12.9l-1.5-10.1l-7.6,2.2l7.1-5.5l-1.5-10l-5.9,2.1l5.3-6.5l-0.7-4.7l2.7-28.4
		l-5.4,3.7l0.6-28.1l-5.3,22.2V91.1c-2.1,11.8-3.3,19.7-7.9,25.2l-0.5-27.5l-8.9,29.9c1.9-11.3-0.2-22.6-2.4-34
		c-0.6,18.9-1.8,37.3-8.2,52.1c4-15.4,1.1-30.9,1.4-46.3c0.5,28.4-3.1,48.6-13.6,55.2l-1.5-31.6c-0.1,9.7,1.4,19.6-2.6,28.5
		l-7.1,1.4c-1.3-6.2-2.7-12.4-8.2-18.6l2,9.7c-6.3-5.4-12.5-16.9-18.8-26l1.8,12.5c-6.8-8.1-10.5-21.7-14-35.6
		c-0.6,14.8,0.2,28.7,3.8,40.9c-5.1-8-12-19.2-15.2-32.6c-1-4.1,0.2,18.2-1.7,18.2c-1.1,0-2.5,4.6-4.2,2.2c-3.9-5.4-5.7-17.8-7.6-21
		c-1.6-2.6,3.6,22.6,1.3,24.9c-3.6,3.6-11-10.1-12.6-18.1c-0.7-3.3,6.4,29.4,4.3,31.5c-2.2,2.2-12.5-19.1-13.9-17.9
		c7.7,20.1,7.8,34.5,27.2,54.6c-8.1-3.6-16.2-8.5-24.4-21c7.8,14.2,7.1,28.4,27.8,42.6c-10.5-0.2-23-14.8-35.2-27.1
		c11.3,18.5,17.1,40.2,39.9,52.1c-9.6-1.4-21.4-9.5-34.5-21.7c12.7,29.8,34,50.4,62.6,79.5l-4.4,1.7c-20.5-14-49.8-28.3-61.7-46.1
		c-1.5-2.2-3.4-3.5-4.7-5.8c-2-3.4,16.1,31.7,16.1,31.7c-8.6-11-16.8-19.2-22.6-33.3l-13.2-43.4l-7.4-57.4
		c-8.2-3.1-17.1-6.1-20.3,11.4c0.4,13.4,2.5,27.6,25.9,42.7l1.2,6.7c-14.3-15.3-32-24.5-37.9-54.8c12.2-8.8,19.8-22.1,23-39.9
		C125.8,64.2,115.6,56,109.1,43.4L109.1,43.4z"/>
	<path id="path4712" class="st3" d="M73.9,29.9C37.4,29.2,19.1,55.6,20.4,84c0.7,14.9,11.5,47.4,44,48.7
		c32.5,1.4,56.4-12.5,58.4-43.7S110.5,30.6,73.9,29.9L73.9,29.9z"/>
	<path id="path4714" class="st4" d="M34.7,119.9c20.9,13.2,33.4,20.1,65.7,5.4l16.2,35.9c5.8,29.9,0.6,55.4-2,81.9
		c-5.9,11.5-6.8,23-7.4,34.5c-35.9,0-68.8,2.3-104.9-0.7l7.4-71.8C33.5,160.7,36.3,139.3,34.7,119.9z"/>
	<path id="path4718" class="st5" d="M183.6,138.2l2.7,11.5l12.2,8.8l27.8-7.4l8.1-14.2c0,0-17.6-20.4-28.4-19.6
		S183.6,138.2,183.6,138.2L183.6,138.2z"/>
	<path id="path4720" class="st6" d="M298,117.2c-7.9-1.8-20.3,21-20.3,21l2.7,12.9l12.2,3.4l8.8-4.7l2.7-14.2
		C304.1,135.5,305.9,119,298,117.2L298,117.2z"/>
	<path id="path4722" class="st1" d="M132.1,121.3c0,0-10.2-9.5-16.9,1.4c-6.8,10.8-3.4,24.4,6.1,37.2c9.5,12.9,17.6,14.9,17.6,14.9
		L132.1,121.3z"/>
	<path id="path4753" class="st7" d="M248.7,219.7c0.4,4,0.3,8-1.7,11.3l3.4,0.3c2.2-3.2,2.5-6.8,2.4-10.7L248.7,219.7z"/>
	<path id="path4755" class="st7" d="M274.2,212.5l-5.5,19.9l2.1,1.4l6.5-25.1L274.2,212.5z"/>
	<path id="path4757" class="st7" d="M278.6,210.4l6.2-6.2c0.2,9.9,1.2,18.7-4.8,35.8l-3.9-2.6C278.6,228.8,278.8,220.2,278.6,210.4z
		"/>
	<path id="path4759" class="st7" d="M289.3,201.1c-0.4,14.2,0.6,28.8-5.5,41.3l1.4,1.4c6.4-13,5.5-29,6.2-44.4L289.3,201.1z"/>
	<path id="path4788" class="st8" d="M69.7,147c0,0,0.5,12.3,3.2,13.7s4.6-5,4.6-5l-9.1,49.6L69.7,147z"/>
	<path id="path4790" class="st8" d="M86.1,144.2c0,0,3.2,4.6,5,0s4.1-9.1,4.1-9.1c2.6,27.4-1.8,47.6-4.6,69.6L86.1,144.2z"/>
	<path id="path4792" class="st8" d="M100.7,137.9c0,0,4.1,12.7,10.5,16.8s6.4,7.7,6.4,7.7s1.4,34.1,0.9,43.7c-0.5,9.6-5,38.7-5,38.7
		C112.5,214.3,114.3,188,100.7,137.9L100.7,137.9z"/>
	<path id="path4794" class="st8" d="M145.2,152c8.6,46,44.7,74.7,68.3,105.1c-25.5-22.6-43.2-51.1-54.2-84.7L145.2,152z"/>
	<path id="path4796" class="st8" d="M157.1,137.9c10,9.6,10,9.6,10,9.6c10.8,29.5,23.1,38.3,35,46.4
		C193.9,189.7,183.3,192.9,157.1,137.9L157.1,137.9z"/>
	<path id="path4798" class="st9" d="M248.1,139.2c1.7-60.3-13.7-95.1-13.7-95.1s-7.2-14.5-9.1-3.6c-6.3,36.9,14.1,82.2,15,85.1
		C244.3,128.1,246.6,133.1,248.1,139.2z"/>
	<path id="path4800" class="st8" d="M190.3,119.2c-7.2-29.7-6-65.4,0.5-92.9l-11.4,39.1C180,88.8,184.6,106,190.3,119.2z"/>
	<path id="path4802" class="st8" d="M181.2,126.5c-7.4-17.9-7.4-40.2-9.1-61.4l-5.9,18.2C176.2,121.7,178.3,121.9,181.2,126.5z"/>
	<path id="path4804" class="st8" d="M298.2,103.3c-0.5-38.7-0.5-38.7-0.5-38.7l3.2,25.5L298.2,103.3z"/>
	<path id="path4806" class="st8" d="M306.4,119.6c4.9-16.1,1.6-34.9-0.5-53.3L304.1,91C307.7,100.5,306.2,110.1,306.4,119.6z"/>
	<path id="path4808" class="st8" d="M312.3,239.8c10.3-24.3,9.7-50.6,6.8-77.4l-7.3,4.1c0,0,0.9,5.9,0.9,8.6s-0.5,5.5-0.5,5.5
		c4.2,36.6-3.6,59.2-12.3,84.2C304.7,256.8,309.9,249,312.3,239.8z"/>
	<path id="path4810" class="st8" d="M303.2,188.8l5.7-5.5c0.6,51.1-9.3,47.1-17,59.8C301.6,227.2,305.6,209.2,303.2,188.8
		L303.2,188.8z"/>
	<path id="path4812" class="st8" d="M139.5,140.2c0,0-1.7,7.8-3.4,8.9c-1.7,1.1-2.6-3.4-2.6-3.4c2.7,23.8,6.2,36.3,9.8,45.6
		C140.1,174.6,139.7,157.4,139.5,140.2L139.5,140.2z"/>
	<path id="path4814" class="st10" d="M306.5,146.5l3.7-31.6L306.5,146.5z"/>
	<path id="path4816" class="st8" d="M160.4,202.2l13.9,12.8l21.9,28.9c0,0-15.5-10.7-21.4-19.3C168.9,216.1,160.4,202.2,160.4,202.2
		L160.4,202.2z"/>
	<path id="path4818" class="st11" d="M209.6,47l3.7,11.2c0,0,1.1,33.2,3.7,36.4c2.7,3.2,6.4,13.4,6.4,13.4l5.4,18.7
		c0,0-11.8-16.6-12.8-22.5c-1.1-5.9-6.4-32.7-6.4-32.7L209.6,47L209.6,47z"/>
	<path id="path4820" class="st8" d="M313.5,110.1c0,0-7.5,11.8-5.4,26.2s2.1,11.2,2.1,11.2s3.7-8.6,4.3-13.9
		S313.5,110.1,313.5,110.1L313.5,110.1z"/>
	<path id="path4822" class="st12" d="M107.4,49.7c-12.3-2.1,8.6,42.8-6.4,56.2s-39.6,10.1-43.4,16c-3.7,5.9,33.8,15.5,53-2.7
		c20.5-19.4,9.8-59.8,8-60.5L107.4,49.7z"/>
	<path id="path4824" class="st11" d="M249.2,51.8c16.6,67.4,9.5,82.4,6.8,93.5l-1.1-8.7c-0.3,3.5-0.1,7.7-2.3,8.9l-1.1-8.9
		c5.1-21.9,0.1-45.7-5.7-69.6L249.2,51.8z"/>
	<path id="path4826" class="st13" d="M309.9,152.2l1.7,9.9c6.6-4.7,8.4-12.9,11.2-20.3L309.9,152.2z"/>
	<path id="path4828" class="st11" d="M196.3,42.9l3,12.3c-1.4,12.1-0.7,24.2,0.2,36.3C196.6,81.1,193.1,72.3,196.3,42.9z"/>
	<path id="path4830" class="st14" d="M245.3-14.1c45.5,7.6,66.3,29.6,80.3,55.5c-22.2-35.8-59-43.9-94-55.3L245.3-14.1z"/>
	<path id="path4832" class="st14" d="M236-0.5c0,0-3.2-1.4-0.2-2.4c11.4-3.8,47.6,48.2,52.7,76C278.6,58.9,260.3,19.6,236-0.5z"/>
	<path id="path4834" class="st9" d="M207.5,2.3l1.3,3.2c0,0-24.6,50.9-20.3,88.3C188.9,96.9,172.9,36.1,207.5,2.3z"/>
	<path id="path4830-4" class="st14" d="M334.5,41.4c16.5,43.1,8.2,72.2-7,97.4c19.5-37.3,7.8-73.1-0.1-109L334.5,41.4z"/>
	<path id="path4830-4-4" class="st14" d="M325.2,61.5c15.9,22.4,14.6,43.1,8.6,63.4c7.1-29.2-4.8-48.3-14.5-68.7L325.2,61.5z"/>
	
		<path id="path4832-9" inkscape:transform-center-x="2.6797022" inkscape:transform-center-y="25.398866" sodipodi:nodetypes="cscc" class="st14" d="
		M306.2,50.7c0,0-2.2-1.8,0.9-1.8c11.7,0.3,19.8,47.1,11.7,68.4C316.6,104.5,318.4,71.5,306.2,50.7L306.2,50.7z"/>
	<path id="path4890" class="st15" d="M232.2,216.8c0,0-9.8-2.4-19.5-4.9c-9.8-2.4-11,1.2-6.1,9.8s4.9,21.4,9.2,21.4s9.2-5.5,9.2-5.5
		L232.2,216.8z"/>
	<path id="path4892" class="st8" d="M126.5,119.1l6.7,2.4c0,0,1.2-56.2,9.2-73.3c7.9-17.1,23.2-42.8,35.4-48.9s25-13.4,25-13.4
		S157-0.7,139.3,40.3C124.4,74.7,126.5,119.1,126.5,119.1L126.5,119.1z"/>
	<path id="path4894" class="st16" d="M61.8,36c-22,3.5-34.4,15.6-38.5,35.4c-3,9.5,1,8.5,4.3,8.6C29.7,59.4,41.7,45.1,61.8,36z"/>
	<path id="path4896" class="st17" d="M223.8,261.3c1-7.1-0.3-5.9,0.9-7s10.2-4.4,10.2-4.4s-6.5,3.1-7.2,4.9
		C226.9,256.5,223.8,261.3,223.8,261.3L223.8,261.3z"/>
	<path id="path4898_00000052093708911800428690000004224098883136766592_" class="st0" d="M266.8,273.2l2.3-9.6l-0.3,9.5
		L266.8,273.2z"/>
	<path id="path4913" class="st0" d="M149.3,223.3c1.6,11.4,13.8,22.4,21.7,32.2c-6.9-10.1-13-22.2-18-32.3L149.3,223.3z"/>
	<path id="path4915" class="st18" d="M332.7,141.6c0,0-3.2,10-5.3,12.1s-3.2,4.2-3.2,4.2c3.2,14,0.7,28.1,0,42.1
		C328.4,181.9,332.6,163.8,332.7,141.6L332.7,141.6z"/>
	<path id="path5029" class="st0" d="M125.6,119.1c0,0-0.6,19.5,0.6,30.2s1.2,19.5,1.2,19.5l10.1,4.7c-2.2-17-5.8-33.6-3.6-52.1
		L125.6,119.1z"/>
	<path id="path3730" class="st19" d="M313.3,115.4c0,0-4.4,12.6-4.9,25.7s7.7,28.5,2.7,38.3s-44.3,40.5-51.5,41.1s-27-3.2-27-3.2
		S220,247.7,220.5,251s1.4,9.4,1.4,9.4"/>
	<path id="path3732" class="st19" d="M152.6,223.3c0,0-18.2-2.4-29.3,7.9c-11.1,10.3-15.5,26.6-15.5,32.9s0,10.7,0,10.7"/>
	<path id="path3734" class="st19" d="M132.4,121.4c0,0-9.5-7.9-15.5-0.4c-5.9,7.5-5.2,23-3.6,27.4s11.1,19.8,17.8,23
		s7.5,3.2,7.5,3.2"/>
	<path id="path3736" d="M187.9,149.2c9.5,13.6,24,5.8,35.3,2.4l3.6,0.4c-13.9,3.5-24.6,17.3-43.6-0.8L187.9,149.2z"/>
	<path id="path3738" d="M282.7,151.2c7.2,3.7,13.5,4.3,17.4-3.6l7.5,1.2c-8.2,5.8-16.1,12.5-27.4,4L282.7,151.2z"/>
	<path id="path3740" class="st19" d="M195.8,109.5c18.5-4.3,32.3,3.6,41.2,12.3"/>
	<path id="path3742" class="st19" d="M279.5,123.4c10.3-15.5,13.7-10.4,20.2-14.7C293.6,111.1,287.7,111.9,279.5,123.4z"/>
	
		<linearGradient id="path3744_00000060006977992532936420000006329085028340910994_" gradientUnits="userSpaceOnUse" x1="215.9457" y1="-641.0156" x2="217.0674" y2="-659.5234" gradientTransform="matrix(1 0 0 -1 0 -408)">
		<stop  offset="0" style="stop-color:#4E3921"/>
		<stop  offset="1" style="stop-color:#D19037"/>
	</linearGradient>
	<path id="path3744" style="fill:url(#path3744_00000060006977992532936420000006329085028340910994_);stroke:#483611;" d="
		M196.6,121.8c0,0-1.6,6.7-1.6,14.3s6.3,20.6,6.3,20.6s3.6,0.4,7.9-0.4c4.4-0.8,12.7-5.6,12.7-5.6s3.2-7.1,3.2-13.1
		c0-5.9-0.6-10.1-0.6-10.1s-8.5-8.4-17-8.8C202.1,118.5,196.6,121.8,196.6,121.8L196.6,121.8z"/>
	<path id="path3746" d="M234.3,138.5c-8.8-9.1-29.4-40.7-50,2l-12.3-4.8c8.8-4.8,13.2-15.6,19-19c22.1-13.1,34.6,8.5,42.8,12.3
		L234.3,138.5z"/>
	<path id="path3748" class="st21" d="M207.5,156.1c0,0-2.4-1.7-1.8-3.9s1.1-3.6,5.7-1.7c9.5-1.9,5.4-9.9,8.4-11.5
		c3.5-1.9,4.5,4.1,4.3,5.7c-0.1,1.7-2.9,6.6-2.9,6.6C216.9,153.4,212.6,155.5,207.5,156.1z"/>
	<path id="path3750" class="st22" d="M213.3,129.6c0,0,0,0-1,1.1s-1.8,2.4-1,3.4s3.4,1,4.1,0S213.3,129.6,213.3,129.6L213.3,129.6z"
		/>
	<path id="path3752" class="st22" d="M216.3,121.6c0,0,0.4,4.9,1.8,7.4c1.4,2.5,2.1,5.7,4.5,5.5s2.2-2.8,2.2-2.8v-4.1L216.3,121.6z"
		/>
	
		<linearGradient id="path3762_00000147916017112697509120000017464575412462980995_" gradientUnits="userSpaceOnUse" x1="284.6143" y1="-641.4528" x2="283.8198" y2="-657.7172" gradientTransform="matrix(1 0 0 -1 0 -408)">
		<stop  offset="0" style="stop-color:#4E3921"/>
		<stop  offset="1" style="stop-color:#D19037"/>
	</linearGradient>
	<path id="path3762" style="fill:url(#path3762_00000147916017112697509120000017464575412462980995_);stroke:#483611;" d="
		M282,135.1c-0.6,3.7-1.3,10,0,15.8c0,0,5.3,2.7,7,3.1c1.7,0.4,7.2-6.7,8.1-17.5s-1-18.8-1-18.8s-6.9,3.6-9.7,7.9
		C283.6,129.8,282,135.1,282,135.1z"/>
	<path id="path3754" class="st6" d="M292.8,120.2c0,0,1.5,0.4,2.2,1.7c0.7,1.3,2.5,4.5,2.2,8.4s-1,4.3-2.1,4.3s-7-8.3-7-8.3
		s0.7-3.4,1.8-4.5S292.8,120.2,292.8,120.2L292.8,120.2z"/>
	<path id="path3756" class="st5" d="M290,131c-2.7,0.4-2.5,3.9-0.4,3.6c2.1-0.3,2.4-0.6,2.4-1.5S290,131,290,131z"/>
	<path id="path3758" class="st21" d="M293.3,147.3c-0.3-6-1.7,0.8-3.5,0.7s-2.8-3.2-3.2,1c-0.4,4.2,1.3,4.2,2.9,3.9
		C291.2,152.6,293.3,147.3,293.3,147.3L293.3,147.3z"/>
	<path id="path3760" class="st24" d="M277.8,140.8c15.9-28.9,25-31.8,25.2-1.7l10.7-5.2c0,0-3.2-0.1-4.2-2.4
		c-1-2.2-2.2-20.6-11.4-20.3c-6.6,0.2-17.7,16.7-17.7,16.7C281.3,129.2,279.4,135.3,277.8,140.8z"/>
	<path id="path3764" class="st19" d="M272.3,158.7l3.4,3.8v2.1"/>
	<path id="path3766" class="st19" d="M269.2,189.8l0.3-1.8c0,0-3.6-0.4-5.6,0.8c-2,1.3-2.1,2.4-2.1,2.4l3.5,0.1"/>
	<path id="path3768" class="st19" d="M242.6,246.7c0.5,0.5-11.8,4.2-15.8,6.2c-3.8,1.8-2.9,10-2.9,10s2.7-7.2,4.5-8.8
		c1.8-1.7,5.2-2.7,8-3.8C239.1,249.1,242.6,246.7,242.6,246.7z"/>
	<path id="path3770" class="st25" d="M227.3,232.1c0,0,10.4,3.1,14.6,12.1c4.2,9,7.6,11.1,7.3,18.8c-0.3,7.7-0.3,10.8-0.3,10.8
		l16.4-0.3l0.1-15c-4-8.3-7.4-19.5-23.6-26.1l-14-0.1L227.3,232.1z"/>
	<path id="path3772" class="st19" d="M242.4,232.1c0,0,18.5-3.2,29.7,2.7s19.2,14.9,21.2,18.4c2,3.5,9.8,19.8,9.8,19.8"/>
	<path id="path3774" class="st19" d="M269.8,259.9c0,0-3.4,13.2-2.5,13.3c0.8,0.1,1.5,0,1.5,0L269.8,259.9z"/>
	<path id="path3776" class="st26" d="M160.4,106.5c-0.7-0.9,43.5-17.7,49.8-19.6c4.1-1.3,15.2-3,21.9-4.9c4.6-1.3,4.6-3.5,4.6-3.5
		h3.1c0,0-1.7,6.4-11.8,7C217.8,86,159.9,103.9,160.4,106.5L160.4,106.5z"/>
	<path id="path3778" class="st26" d="M308.9,97.8c-9.3-6.1-20.5-13.6-28.3-18.4C290.9,82.8,298,88,308.9,97.8z"/>
	<path id="path3782" class="st19" d="M119.3,138.5c0,0,2,7.5,5.6,11.5s9.9,6.3,9.9,6.3"/>
	<path id="path3784" class="st19" d="M120.5,129.7c0,0,5.6-2,8.3,1.2c2.8,3.2,4,6.7,4,6.7"/>
	<path id="path3805" class="st27" d="M213.3-16.5c0,0-47.7,9.5-67.3,55s-13.5,127.3-4.5,148.1s9,35.9,17.4,47.7s19.1,24.1,19.1,24.1
		s-15.7-26.4-18.5-34.2c-2.8-7.9,10.7,15.1,17.4,19.1s29.7,18.8,35.9,23.3s12.9,7.6,12.9,7.6l5-0.6c0,0-20.4-21.9-37-37.9
		c-6.7-6.4-20.5-28-24.4-42.3c-0.6-2.3,7.6,6.6,12.3,11.5c7.3,7.6,23.8,13.7,23.8,13.7s-23-14-32.5-34.2s-9.5-23-9.5-23
		s13.5,20.8,24.7,26.4s15.1,5.6,15.1,5.6s-12.1-1.4-24.1-23c-16-28.7-11.2-23.6-11.2-23.6s10.7,13.5,17.4,17.9s10.7,5,10.7,5
		s-17.4-16.3-21.9-31.4s-10.1-32-10.1-32s5.7,13.5,8.7,17.7c4.5,6.2,11.5,10.9,11.5,10.9s-4.5-12.3-6.2-19.1s-4-25.7-4-25.7
		s3.9,19.1,7.3,23.6s9.5,8.4,9.5,8.4l-5-35.3l8.4,28.6l6.2-3.4l-1.1-21.9c0,0,5.6,14.6,7.3,20.2s11.8,20.8,11.8,20.8
		s-5.6-14-6.2-24.7c-0.6-10.7,0-26.4,0-26.4s3.1,20.2,6.2,27.5c2.4,5.8,9.5,19.1,9.5,19.1s-1.1-6.2-2.2-11.2s-2.8-10.7-2.8-10.7
		s11.2,21.9,14.6,25.2c3.4,3.3,9.5,7.9,9.5,7.9s-6.7-7.3-6.7-11.2c0-3.9,7.3,7.3,7.3,7.3c0.7,4.7,2.8,9.3,0,14
		c2.3-0.8,3.7-5.5,4.5-12.3c0.4,4,1,8.1,0,10.7c3.4-2.5,3.1-7.1,2.8-11.8c0.3,4.4,1.5,7.8,0,12.3c5.6-7.5,3.8-20.9,5.6-31.4
		c0.4,12.8,0.4,23.7,0,32c14.7-17.7,12.8-35.9,14-56.4c2.1,17.9,1.4,34.6-2.8,49.6c10-19.1,7.7-38.1,9.5-57.2
		c1.1,12.9,5.6,25.8,0.6,38.7c6.6-10.8,7.1-23.7,9.5-35.9c0.5,10.5,0.8,21.5,0.6,34.2c6.3-8.9,8.1-19.7,8.4-30.8
		c0.5,9,1.9,17.9-1.1,26.9c3.7-3,5.2-14.6,6.7-26.4c0.4,11.4,2,23-1.1,33.7c4.3-7.1,6.2-14.6,6.7-22.4l-2.2,26.4l5.6-24.7
		c-3,17.6,6.6,37.2-12.3,52.2c9.6-1.3,14.7-8.9,20.8-15.1c-4.5,15.4-10.2,29.8-33.1,29.7c16,0,31.8-2.7,44.9-31.4l5.6-32
		c0,0,6.2-55.5-10.7-78c-17-22.5-55.7-47.8-81-48.9S220-15.9,220-15.9"/>
	<path id="path3807" class="st28" d="M333.8,142.3c-8.5,97.7-35.8,125.8-35.9,125.9c3.3-6.6,6.7-12.1,9.3-26.6
		c-3.5,12.7-9.9,22.4-17.1,31.4c9.8-15.9,12.5-33.5,16.5-50.8c-5.6,7.7-7.4,17.4-17.7,22.4c15.2-16.1,14.6-37,13.7-56.1
		c0,0,8.5-5.5,10.1-11.8s-2.8-21.6-2.8-21.6l-2-15.4l1.7-10.4l3.9-17.9L333.8,142.3z"/>
	<path id="path4705" class="st29" d="M314.6,112.9c13.9,20.8,18.4,28,18.4,28"/>
	<path id="path3809" class="st28" d="M290.9,200c0.7,16.8-0.1,32.2-5.3,43.7l-1.7-1.4c6.4-12,5.5-26.5,5.3-40.7L290.9,200z"/>
	<path id="path3811" class="st28" d="M248.9,220.2c-0.1,3,0.1,5.5-1.4,10.7l3.6-0.3c2.2-2.2,1.8-6.2,2-9.8L248.9,220.2z"/>
	<path id="path3813" class="st28" d="M274.1,212.4l-5,20.2l2.2,0.8l5.6-22.7L274.1,212.4z"/>
	<path id="path3815" class="st28" d="M285.9,203.9c-0.6,12.8-1.2,25.7-6.2,35.6l-3.4-2c1.4-8.3,2-17.4,2-27.2L285.9,203.9z"/>
	<path id="path3817" class="st28" d="M324,158c2.9,14.6,2.4,28.7,0.8,42.6"/>
	<path id="path3819" class="st28" d="M318.4,162.2c5.8,28.6,2.2,54.2-6.2,78.2"/>
	<path id="path3821" class="st28" d="M312.2,179.5c5.8,36.1-1.9,62.9-16.5,83.8"/>
	<path id="path3823" class="st28" d="M307.8,197.2c1,12.3-0.2,21.7-3.6,28"/>
	<path id="path3825" class="st28" d="M225.3,0.1c25.7,39.8,33.3,80.1,34.5,120.6"/>
	<path id="path3827" class="st28" d="M221.4,34.3c3.3,35.9,4.1,65.3,18.5,92.3"/>
	<path id="path3829" class="st28" d="M237.4,45.8c12.5,30.2,18.8,60.4,14.9,90.6"/>
	<path id="path3831" class="st28" d="M215.5,5.7c-4.8,27-8.4,53.8-3.6,79.4"/>
	<path id="path3833" class="st28" d="M201.8-5.5C184,19,168.2,45.4,174,92.1"/>
	<path id="path3835" class="st28" d="M207.6,1.5c-23.7,27.4-27.2,56.4-21.9,86.1"/>
	<path id="path3837" class="st28" d="M209.6,5.1c-11.2,21.3-19.3,45.9-11.2,87.2"/>
	<path id="path3839" class="st28" d="M212.4,57.3c3,16.1,0.7,32.8,10.4,48.2"/>
	<path id="path3841" class="st28" d="M199.2,54.5c0,14.6-2.4,29.2,3.1,43.7"/>
	<path id="path3843" class="st28" d="M180.2,64.6c0.6,30.3,5.7,43.6,10.7,57.2"/>
	<path id="path3845" class="st28" d="M166.7,81.7c3.8,18.6,7.9,36.6,15.4,48.5l0,0"/>
	<path id="path3847" class="st28" d="M151,52.5c-7.9,41.8-6.6,81.5,14,115"/>
	<path id="path3849" class="st28" d="M139.2,139.4c1,17.8-0.1,35.5,5,53.3"/>
	<path id="path3851" class="st28" d="M144.8,151.2c9.7,27.5,5.3,36.8,49.9,90.3"/>
	<path id="path3853" class="st28" d="M148.8,180.4c3.5,14.8,6.4,30.6,11.2,42.6"/>
	<path id="path3855" class="st28" d="M159.4,199.5c9.2,16.2,16.8,31.9,55,58.3"/>
	<path id="path3857" class="st25" d="M191.4,251.6c7.7,6.5,15.1,16.5,14,23h10.1v-7.3L191.4,251.6z"/>
	<path id="path3859" class="st28" d="M263.7,34c6.4,16.4,15,27.1,17.4,54.4"/>
	<path id="path3861" class="st28" d="M241.9-2.4c30.2,25.9,44.6,56.4,49.4,89.7"/>
	<path id="path3863" class="st28" d="M243-10.9c55.6,15.3,72.6,92.1,63.9,130.1"/>
	<path id="path3865" class="st28" d="M312,38.5c14.6,38.3,15.9,72.7,0.6,102.1l0,0"/>
	<path id="path3867" class="st28" d="M225.6-15.3c53.9-3.6,95.7,33.8,108.3,76.8c11.5,39.3,0.9,86.1-19.1,103.2"/>
	<path id="path3869" class="st28" d="M199.8-14.2c-29.1-0.6-83.8,19.8-89.7,58.3"/>
	<path id="path3871" class="st28" d="M101.6,125.4c5.8,36.9,38.1,55,38.1,55"/>
	<path id="path3873" class="st30" d="M74.2,30.1c35.3,0.6,51,31.4,48.8,57.2s-19.1,44.3-46.5,45.4C49,133.8,21.7,122.6,21,77.2
		C20.5,52.5,38.8,29.5,74.2,30.1z"/>
	<path id="path3875" class="st28" d="M110.6,45.8c12.7-16.7,27.9-31.7,51-40.9"/>
	<path id="path3877" class="st28" d="M115.1,50.3c19.3-23.6,27.4-26.3,27.5-26.4"/>
	<path id="path3879" class="st28" d="M123,68.2c6.5-2.7,13.1-11.8,19.6-21.9"/>
	<path id="path3881" class="st28" d="M122.4,77.2c5,2.2,10.1-1.4,15.1-5"/>
	<path id="path3883" class="st28" d="M117.4,159.6c0.8,26.1,3.3,50.3-4.5,86.4"/>
	<path id="path3885" class="st28" d="M34.3,117c2,30.5-6.7,59.4-24.1,86.9"/>
	<path id="path3887" class="st28" d="M34.9,154c-7,21.4-7.9,37.5-25.8,68.4"/>
	<path id="path3889" class="st28" d="M70.2,146.7c-3.5,35.4,12.8,55.2-34.8,125.1"/>
	<path id="path3891" class="st28" d="M74.7,146.2l-5.6,50.5"/>
	<path id="path3893" class="st28" d="M78.1,149c-0.9,18.7-5.9,33.3-9.5,49.4"/>
	<path id="path3895" class="st28" d="M86.5,142.8c2.2,40.6,13,76-5.6,129"/>
	<path id="path3897" class="st28" d="M91.6,140c3,23,1.9,44.6,0.6,66.2"/>
	<path id="path3899" class="st28" d="M94.9,135.5c3.3,29.7-1.1,49.6-3.4,72.3"/>
	<path id="path3901" class="st28" d="M98.8,137.2c10.1,36.5,17.3,72.4,14,106"/>
	<path id="path3903" class="st28" d="M102.2,137.2c5.4,26,15.9,28.6,11.8,98.1"/>
	<path id="path3905" class="st28" d="M298.5,256.7c7.2-18.7,14.6-37.2,14.6-61.7"/>
	<path id="path3907" class="st28" d="M154.4,113.1c4.7,12.1,4.9,22.3,16.3,37"/>
	<path id="path3909" class="st28" d="M158.3,138.9c10.1,21.3,20.8,42.7,33.1,49.9"/>
	<path id="path3911" class="st28" d="M198.7-10.3c-28.8,30.2-46.7,66.2-35.3,117.2"/>
	<path id="path3913" class="st28" d="M155.5,151.2c2.9,22.5,10.1,38.1,17.4,53.3"/>
	<path id="path3915" class="st28" d="M154.4,22.8c0,0-19.5,10.5-21.3,19.1c-2.1,10.1-6.7,20.2-9.5,20.8s-2.2,2.2-2.2,2.2"/>
	<path id="path3917" class="st28" d="M297.9,66.5c0.9,13.5,0.6,24.8,0,35.3"/>
	<path id="path4703" class="st2" d="M207.1,110.6l5,0.1c0.8,5.9,2.7,11.1,4.4,16.6C213.5,122.5,211.4,120.5,207.1,110.6z"/>
</g>
<line id="svg_14" class="st31" x1="168" y1="277" x2="161.4" y2="287.6"/>
<line id="svg_15" class="st31" x1="186.4" y1="288.9" x2="165.8" y2="250.2"/>
<path id="svg_4" class="st32" d="M164.9,284.5"/>
<path id="path5025" class="st33" d="M326.9,314.4c0,0-3.8,0.7-4.9,2.2c-1.1,1.4,0.7,3-2.3,3s-3.1-2-4.9-0.6s-2.9,4.9,0.6,6.1
	s4.8-1.1,7.3,0.2c2.5,1.3,2.4,3.2,5,2.6s3.6-3.8,3.6-5.1s-1.8-6.6-2.8-7.2s-2.3-1-2.3-1"/>
<path id="path5018" class="st34" d="M336.3,317.7l0.2,14.8"/>
<path id="path4992" class="st35" d="M368.8,284.5l0.7,48.3l0.4,0.5h4.5l3.7-53.5C378.1,279.9,378.1,279.9,368.8,284.5L368.8,284.5z"
	/>
<path id="path4994" class="st35" d="M371.8,282.8l-0.2,50.6"/>
<path id="path5004" class="st35" d="M369.4,318.1l6.6-1.4"/>
<path id="path5006" class="st35" d="M354,333l-1.1-16.5l-9.6-0.1l0.6-10.5L338,301l-7.4-0.1v2.6h-2.4v-3.9h-5.3l-0.7,5.5l-6.2,2.2
	l-0.2,10.6l-6.5,1.6l0.1,13.3L354,333z"/>
<path id="path5010" class="st34" d="M325.4,304l0.5,10.8h14.5v-9.7L325.4,304z"/>
<path id="path5012" class="st34" d="M351.1,319.1l0.1,13.8"/>
<path id="path5014" class="st34" d="M348.2,319.1l0.1,13.4"/>
<path id="path5016" class="st34" d="M344.7,320.5l-0.6,12.2"/>
<path id="path5020" class="st36" d="M295.4,333.1c0,0-0.4-14.3,0.1-14.8c0.9-0.8,2.5-1.8,4.8-1.9c3.8-0.2,2.9-2.5,5.5-3
	s1.6-3.1,4.3-3.7c2.8-0.6,8.7,0.1,9.7,1.8s3.4,1.4,5.3,2s5.1,1.8,5.5,3.2s1.6,5.9,1.6,5.9s1.9-2.2,4.1-2.3s3.6,0.5,4.4,1.2
	s2.4,0.1,3.2,1s-0.8,3.5,0.6,3.7s4.8,1.1,5.3,0s1.2-1.4,4.1-1.9s4.3-1.6,6.5-1.2s1.7,1.7,3.8,2.6c2.2,1,3.2,0.7,5.3,0.1
	c0.8-0.2,3.9-1.3,4.8,0.1c1.3,2.1,0.4,6.9,0.4,6.9"/>
<path id="path5027" class="st33" d="M376.4,333.6c0,0,1.7-3.5-1.2-3.1s-5.5,2.2-8.4,2s1,1.8-2.9-0.1s-1.4-2.8-3.8-1.9
	c-2.4,0.8-4.3,2.8-6.1,2.2c-1.8-0.6-2.9,2.3-2.9,2.3L376.4,333.6z"/>
<linearGradient id="SVGID_1_" gradientUnits="userSpaceOnUse" x1="-1.9" y1="33.25" x2="382.7" y2="33.25" gradientTransform="matrix(1 0 0 -1 0 336)">
	<stop  offset="0" style="stop-color:#000000;stop-opacity:0.9961"/>
	<stop  offset="0.9844" style="stop-color:#595959;stop-opacity:0.9883"/>
</linearGradient>
<rect x="-1.9" y="271.6" class="st37" width="384.6" height="62.3"/>
<g>
	<g>
		
			<linearGradient id="SVGID_00000090977589987866357520000010732657638677274010_" gradientUnits="userSpaceOnUse" x1="34.8" y1="48.2954" x2="34.8" y2="17.9876" gradientTransform="matrix(1 0 0 -1 0 336)">
			<stop  offset="0" style="stop-color:#FEFF7F"/>
			<stop  offset="0.374" style="stop-color:#FEFA61;stop-opacity:0.9962"/>
			<stop  offset="0.7526" style="stop-color:#FFF648;stop-opacity:0.9924"/>
			<stop  offset="0.9844" style="stop-color:#FFF53F;stop-opacity:0.99"/>
		</linearGradient>
		<path style="fill:url(#SVGID_00000090977589987866357520000010732657638677274010_);" d="M54.1,284.6l-15.5,26.8
			c-1.8,3-2.6,4.9-2.6,5.5c0,1.1,1.6,1.6,4.8,1.6c1.2,0,2.5-0.1,3.8-0.4s2.2-0.6,2.8-1c1.2-0.8,2.4-2.5,3.6-5.1
			c0.5-1,0.9-1.7,1.4-2.1c0.4-0.4,1-0.6,1.8-0.6c1.6,0,2.9,0.5,3.7,1.4s1.2,2.3,1.2,4.1c0,3.8-1,7-3,9.8c-1.4,1.9-2.7,2.9-3.9,2.9
			c-0.4,0-0.8,0-1.4-0.1c-1.7-0.3-3.3-0.5-4.9-0.5H15.2c-1.4,0-2.2,0-2.5-0.1c-0.3,0-0.5-0.2-0.8-0.5c-0.5-0.5-0.7-1.1-0.7-2
			c0-0.8,0.3-1.7,1-2.8L30.3,291c0.5-0.9,0.8-1.5,0.8-1.9c0-1.3-1.3-2-4-2c-2.3,0-4,0.4-5,1.1s-2.2,2.4-3.5,5.1
			c-1,2-2.1,3.1-3.4,3.1c-1.2,0-2.3-0.6-3.3-1.7s-1.4-2.5-1.4-4c0-2.4,1-5.3,3-8.6c1.4-2.3,2.5-3.5,3.4-3.5c0.2,0,0.5,0.1,0.9,0.2
			c1.4,0.5,4.5,0.7,9.3,0.7c2.2,0,7.1-0.2,14.8-0.7c6.6-0.4,9.9-0.6,10.1-0.6c1,0,1.8,0.3,2.4,0.9c0.6,0.6,0.9,1.4,0.9,2.3
			C55.4,282,55,283.1,54.1,284.6z"/>
		
			<linearGradient id="SVGID_00000155853485493150444770000005234090536268463512_" gradientUnits="userSpaceOnUse" x1="138.3" y1="48.2954" x2="138.3" y2="17.9876" gradientTransform="matrix(1 0 0 -1 0 336)">
			<stop  offset="0" style="stop-color:#FEFF7F"/>
			<stop  offset="0.374" style="stop-color:#FEFA61;stop-opacity:0.9962"/>
			<stop  offset="0.7526" style="stop-color:#FFF648;stop-opacity:0.9924"/>
			<stop  offset="0.9844" style="stop-color:#FFF53F;stop-opacity:0.99"/>
		</linearGradient>
		<path style="fill:url(#SVGID_00000155853485493150444770000005234090536268463512_);" d="M125.9,327h-2.5c-1.5,0-3.1,0.1-5,0.2
			c-1.1,0.1-1.9,0.1-2.4,0.1c-1.6,0-2.8-0.4-3.8-1.1s-1.5-1.7-1.5-2.8c0-0.8,0.2-1.5,0.7-1.9c0.4-0.5,1.1-0.8,2.1-1.1
			c0.9-0.2,1.6-0.6,1.9-1.1s0.6-1.6,0.8-3.1c0.2-1.8,0.4-5.2,0.5-10.3c0.2-5.1,0.2-10.1,0.2-15.2c0-2-0.2-3.3-0.5-3.9
			c-0.3-0.7-1-1.2-2.1-1.6c-1.6-0.6-2.4-1.7-2.4-3.1c0-1.1,0.6-2,1.7-2.7c1.1-0.6,2.7-1,4.7-1c0.7,0,1.4,0,2.3,0
			c2,0.1,3.4,0.1,4.3,0.1c3.4,0,7.1-0.1,11.4-0.3c0.9,0,2-0.1,3.3-0.1c5.4,0,9.6,0.6,12.7,1.8c4.6,1.8,8.1,4.9,10.5,9.2
			c2.1,3.8,3.1,8.3,3.1,13.6c0,2.6-0.4,5.3-1.2,8s-1.8,5-3.1,6.9c-2.7,3.9-6.5,6.7-11.2,8.3c-2.8,0.9-5.8,1.4-9,1.4l-4.3-0.1
			l-3.7-0.1C130.6,327,128.1,327,125.9,327z M133.3,288.9v27.2c0,1.5,0.3,2.5,0.9,3.1s1.7,0.9,3.2,0.9c6.8,0,10.3-5.2,10.3-15.6
			c0-5.7-0.8-10.2-2.4-13.4c-1.8-3.5-4.7-5.2-8.9-5.2c-1.1,0-1.9,0.2-2.4,0.7S133.3,287.8,133.3,288.9z"/>
		
			<linearGradient id="SVGID_00000033352389829961895850000014543222250606968756_" gradientUnits="userSpaceOnUse" x1="242.35" y1="48.2954" x2="242.35" y2="17.9876" gradientTransform="matrix(1 0 0 -1 0 336)">
			<stop  offset="0" style="stop-color:#FEFF7F"/>
			<stop  offset="0.374" style="stop-color:#FEFA61;stop-opacity:0.9962"/>
			<stop  offset="0.7526" style="stop-color:#FFF648;stop-opacity:0.9924"/>
			<stop  offset="0.9844" style="stop-color:#FFF53F;stop-opacity:0.99"/>
		</linearGradient>
		<path style="fill:url(#SVGID_00000033352389829961895850000014543222250606968756_);" d="M245.1,286.3c-1.6,0-2.6,0.4-3,1.2
			c-0.3,0.6-0.5,1.8-0.8,3.6s-0.4,3.4-0.4,4.9c0,0.9,0.3,1.5,0.8,1.8s1.6,0.5,3.2,0.5c1,0,1.8-0.2,2.3-0.6s0.8-1,1-1.9
			c0.5-2.6,1.6-3.8,3.3-3.8c2.9,0,4.3,3.4,4.3,10.3c0,4.3-0.6,7.5-1.9,9.6c-0.8,1.2-1.8,1.9-3.1,1.9c-1.4,0-2.2-0.9-2.4-2.8
			c-0.1-1.2-0.3-2-0.4-2.5s-0.5-1-1-1.4c-0.8-0.7-1.9-1.1-3.4-1.1c-1.1,0-1.8,0.2-2.1,0.6s-0.5,1.1-0.5,2.1c0,0.2,0,1.3,0,3.3
			c0,4.1,0.4,6.5,1.3,7.4c0.3,0.4,0.6,0.6,0.9,0.7s1.1,0.3,2.3,0.4c0.6,0.1,1.1,0.4,1.5,0.9s0.6,1.2,0.6,1.9c0,1.8-1.1,3-3.2,3.5
			c-3,0.7-7.3,1.1-12.8,1.1c-4.8,0-8.2-0.3-10-0.8c-0.8-0.3-1.5-0.7-2-1.4s-0.8-1.4-0.8-2.2c0-1,0.4-1.9,1.1-2.5
			c0.2-0.1,0.8-0.4,1.9-0.9c1.3-0.5,2.1-1.7,2.4-3.6c0.4-2.9,0.6-9.5,0.6-19.7c0-4.4-0.2-7.3-0.5-8.6s-1-2.2-2.2-2.7s-1.9-1-2.3-1.4
			s-0.5-0.9-0.5-1.7c0-1,0.5-1.9,1.5-2.6s2.2-1,3.7-1c0.9,0,2.3,0.1,4.1,0.2c3.8,0.3,8.4,0.5,13.7,0.5c8.5,0,14.2-0.2,17.2-0.7
			c0.4,0,0.7-0.1,0.9-0.1c0.8,0,1.6,0.5,2.4,1.4c2.1,2.6,3.1,5.5,3.1,8.7c0,1.5-0.3,2.6-1,3.5s-1.6,1.3-2.7,1.3
			c-0.8,0-1.4-0.2-1.9-0.5s-1.5-1.5-3.2-3.4c-1.1-1.2-2.3-2-3.8-2.4S249.2,286.4,245.1,286.3z"/>
		
			<linearGradient id="SVGID_00000018920571654205273800000004381137866961413301_" gradientUnits="userSpaceOnUse" x1="344.6" y1="48.2954" x2="344.6" y2="17.9876" gradientTransform="matrix(1 0 0 -1 0 336)">
			<stop  offset="0" style="stop-color:#FEFF7F"/>
			<stop  offset="0.374" style="stop-color:#FEFA61;stop-opacity:0.9962"/>
			<stop  offset="0.7526" style="stop-color:#FFF648;stop-opacity:0.9924"/>
			<stop  offset="0.9844" style="stop-color:#FFF53F;stop-opacity:0.99"/>
		</linearGradient>
		<path style="fill:url(#SVGID_00000018920571654205273800000004381137866961413301_);" d="M352.5,298.9l13.4,16.8
			c0.8,1,1.4,1.7,1.9,2s1.1,0.7,1.9,0.9c1.3,0.4,2.2,0.9,2.7,1.4s0.8,1.3,0.8,2.1c0,0.8-0.3,1.6-0.9,2.4s-1.3,1.3-2.2,1.6
			c-1.4,0.5-3.2,0.9-5.3,1.1s-5,0.3-8.8,0.3c-4,0-7-0.2-9-0.7c-1.2-0.3-2.1-0.7-2.8-1.4s-1-1.3-1-2.1c0-1,0.5-1.8,1.4-2.5
			c0.9-0.6,1.4-1.1,1.4-1.5c0-1.2-1.4-3.6-4.1-7.1c-0.4-0.4-0.7-0.7-0.9-0.7c-0.2,0-0.5,0.2-0.8,0.6c-1.1,1.4-2.1,2.7-3,4.1
			s-1.3,2.2-1.3,2.6s0.5,0.9,1.4,1.7c0.9,0.7,1.4,1.6,1.4,2.7c0,1.6-0.9,2.7-2.7,3.3c-2.4,0.8-5.2,1.1-8.5,1.1
			c-3.8,0-6.6-0.3-8.6-0.9c-0.8-0.3-1.5-0.7-2.1-1.4s-0.8-1.4-0.8-2.2c0-1,0.3-1.8,1-2.4s1.7-0.9,3-0.9c1.5,0,2.9-0.5,3.9-1.4
			s3-3,5.6-6.4l5.4-6.8c0.3-0.4,0.5-0.7,0.5-0.9c0-0.1-0.2-0.4-0.5-0.8l-9-11.5c-1.4-1.8-2.3-2.9-2.8-3.3s-1.2-0.8-2.1-1.1
			c-1.4-0.4-2.3-0.9-2.7-1.2c-0.8-0.7-1.2-1.6-1.2-2.6c0-2.1,1.7-3.5,5-4.3c3.5-0.8,7.5-1.2,11.9-1.2c4.7,0,7.8,0.3,9.5,0.9
			c0.7,0.3,1.3,0.7,1.8,1.3s0.7,1.3,0.7,2.1c0,1.2-0.4,2.1-1.3,2.7c-0.5,0.4-0.9,0.6-1,0.7s-0.2,0.3-0.2,0.6c0,0.5,0.4,1.4,1.3,2.5
			s1.5,1.7,1.9,1.7s1.1-0.6,2-1.8s1.5-2,1.5-2.5c0-0.3-0.1-0.5-0.2-0.6s-0.6-0.5-1.4-1.1c-0.7-0.5-1.1-1.3-1.1-2.3
			c0-1.5,0.9-2.5,2.7-3.2s4.8-1,8.9-1c3,0,5.4,0.2,7,0.7c2.1,0.6,3.1,1.8,3.1,3.7c0,1.2-0.5,2.1-1.6,2.7c-0.4,0.2-1.5,0.4-3.3,0.5
			c-1.2,0.1-2.4,0.6-3.6,1.5s-2.7,2.4-4.3,4.5l-4.1,5.2c-0.3,0.4-0.5,0.7-0.5,0.9C352,298.2,352.2,298.5,352.5,298.9z"/>
	</g>
</g>
</svg>
